<svg width="70" height="50" viewBox="0 0 70 50" fill="none" xmlns="http://www.w3.org/2000/svg" xmlns:xlink="http://www.w3.org/1999/xlink">
<path d="M5,19C2.239,19 0,21.239 0,24C0,26.761 2.239,29 5,29L5,19ZM65,29C67.761,29 70,26.761 70,24C70,21.239 67.761,19 65,19L65,29ZM5,-0.333C2.239,-0.333 0,1.905 0,4.667C0,7.428 2.239,9.667 5,9.667L5,-0.333ZM65,9.667C67.761,9.667 70,7.428 70,4.667C70,1.905 67.761,-0.333 65,-0.333L65,9.667ZM5,38.333C2.239,38.333 0,40.572 0,43.333C0,46.095 2.239,48.333 5,48.333L5,38.333ZM35,48.333C37.761,48.333 40,46.095 40,43.333C40,40.572 37.761,38.333 35,38.333L35,48.333ZM5,29L65,29L65,19L5,19L5,29ZM5,9.667L65,9.667L65,-0.333L5,-0.333L5,9.667ZM5,48.333L35,48.333L35,38.333L5,38.333L5,48.333Z" fill="#008018"/>
</svg>
